<svg width="498" height="407" viewBox="0 0 498 407" fill="none" xmlns="http://www.w3.org/2000/svg">
<path d="M274.265 13.5076C269.296 13.5076 264.582 14.5906 260.341 16.5315C255.402 9.85943 247.475 5.53252 238.536 5.53252C235.876 5.53252 233.308 5.92172 230.88 6.63677C227.466 7.64191 224.33 9.29664 221.62 11.4637C215.503 4.87303 206.767 0.74733 197.066 0.74733C178.567 0.74733 163.57 15.7438 163.57 34.2427C163.57 37.7354 164.106 41.1031 165.097 44.2687C158.37 49.2031 154 57.1614 154 66.1435C154 81.1189 166.14 93.259 181.116 93.259C181.518 93.259 181.918 93.2461 182.316 93.2287C188.367 101.923 198.431 107.614 209.826 107.614C217.802 107.614 225.127 104.826 230.88 100.171C233.882 97.7418 236.456 94.8047 238.47 91.4902C241.465 92.6296 244.712 93.259 248.106 93.259C257.869 93.259 266.423 88.0979 271.198 80.3576C272.208 80.4495 273.231 80.4987 274.265 80.4987C292.764 80.4987 307.76 65.5023 307.76 47.0033C307.76 28.5041 292.764 13.5076 274.265 13.5076Z" fill="#1AB9FF"/>
<path d="M241.004 72.3961H238.95V42.5693C238.95 41.181 237.82 40.0516 236.432 40.0516H231.841C230.452 40.0516 229.323 41.1811 229.323 42.5693V72.3961H224.107V56.0832C224.107 54.6949 222.978 53.5654 221.589 53.5654H216.998C215.609 53.5654 214.48 54.695 214.48 56.0832V72.3961H209.264V63.9478C209.264 62.5595 208.134 61.43 206.746 61.43H202.155C200.766 61.43 199.637 62.5595 199.637 63.9478V72.3961H197.472C196.955 72.3961 196.535 72.8154 196.535 73.3327C196.535 73.85 196.955 74.2693 197.472 74.2693H241.004C241.521 74.2693 241.941 73.85 241.941 73.3327C241.941 72.8154 241.521 72.3961 241.004 72.3961ZM207.391 72.3961H201.51V63.9478C201.51 63.5923 201.799 63.3032 202.155 63.3032H206.746C207.102 63.3032 207.391 63.5923 207.391 63.9478V72.3961ZM222.234 72.3961H216.353V56.0832C216.353 55.7277 216.642 55.4386 216.998 55.4386H221.589C221.945 55.4386 222.234 55.7277 222.234 56.0832V72.3961ZM237.077 72.3961H231.196V42.5693C231.196 42.2139 231.485 41.9247 231.841 41.9247H236.432C236.788 41.9247 237.077 42.2139 237.077 42.5693V72.3961Z" fill="white"/>
<path d="M238.948 27.3011C238.961 27.0455 238.871 26.7856 238.676 26.5905C238.481 26.3953 238.221 26.3053 237.965 26.3185C237.95 26.3178 237.935 26.3162 237.92 26.3162H232.253C231.736 26.3162 231.317 26.7355 231.317 27.2528C231.317 27.7701 231.736 28.1894 232.253 28.1894H235.752L226.493 37.4483L223.002 33.9567C222.826 33.7811 222.588 33.6824 222.34 33.6824C222.091 33.6824 221.853 33.7811 221.677 33.9567L204.84 50.7937C204.475 51.1594 204.475 51.7524 204.84 52.1183C205.023 52.301 205.263 52.3924 205.503 52.3924C205.742 52.3924 205.982 52.301 206.165 52.1181L222.34 35.9434L225.831 39.435C226.197 39.8007 226.79 39.8007 227.156 39.435L237.077 29.514V32.6806C237.077 33.1979 237.496 33.6172 238.013 33.6172C238.531 33.6172 238.95 33.1979 238.95 32.6806V27.3465C238.95 27.3312 238.948 27.3163 238.948 27.3011Z" fill="white"/>
<path d="M353.384 132.814C349.828 132.814 346.454 133.589 343.42 134.978C339.885 130.204 334.213 127.107 327.816 127.107C325.913 127.107 324.075 127.386 322.338 127.898C319.895 128.617 317.651 129.801 315.711 131.352C311.334 126.635 305.082 123.683 298.14 123.683C284.902 123.683 274.171 134.415 274.171 147.652C274.171 150.152 274.554 152.562 275.264 154.827C270.45 158.358 267.322 164.053 267.322 170.48C267.322 181.197 276.01 189.884 286.726 189.884C287.014 189.884 287.3 189.875 287.585 189.862C291.915 196.084 299.117 200.157 307.271 200.157C312.979 200.157 318.221 198.161 322.338 194.83C324.486 193.092 326.327 190.99 327.769 188.618C329.912 189.434 332.235 189.884 334.665 189.884C341.65 189.884 347.772 186.191 351.189 180.652C351.912 180.718 352.643 180.753 353.384 180.753C366.621 180.753 377.353 170.022 377.353 156.784C377.353 143.546 366.621 132.814 353.384 132.814Z" fill="#59C6F6"/>
<path d="M190.656 143.817C182.816 143.817 175.377 145.525 168.686 148.588C160.893 138.06 148.386 131.233 134.282 131.233C130.085 131.233 126.033 131.847 122.202 132.976C116.815 134.562 111.867 137.172 107.591 140.592C97.9393 130.193 84.1557 123.683 68.8487 123.683C39.6605 123.683 15.9987 147.345 15.9987 176.533C15.9987 182.044 16.8431 187.358 18.4082 192.352C7.79361 200.138 0.898254 212.695 0.898254 226.867C0.898254 250.496 20.0533 269.651 43.682 269.651C44.3174 269.651 44.9476 269.63 45.5759 269.603C55.1229 283.321 71.0023 292.301 88.9818 292.301C101.568 292.301 113.125 287.901 122.202 280.556C126.938 276.724 130.999 272.09 134.178 266.86C138.903 268.658 144.026 269.651 149.382 269.651C164.785 269.651 178.282 261.507 185.816 249.295C187.41 249.44 189.024 249.517 190.656 249.517C219.844 249.517 243.506 225.855 243.506 196.667C243.506 167.478 219.844 143.817 190.656 143.817Z" fill="#1BA3DF"/>
<path d="M322.324 171.179H332.116V170.09H323.411V169.001H336.463V170.09H333.226V171.179H337.551V167.911H322.324V171.179Z" fill="white"/>
<path d="M323.433 160.286H336.442V157.018H323.433V160.286ZM324.52 158.107H335.354V159.197H324.52V158.107Z" fill="white"/>
<path d="M310.3 165.733H314.665V162.465H310.3V165.733ZM311.387 163.554H313.578V164.643H311.387V163.554Z" fill="white"/>
<path d="M334.293 165.733H338.648V162.465H334.293V165.733ZM335.381 163.554H337.561V164.643H335.381V163.554Z" fill="white"/>
<path d="M332.113 165.733V162.465H321.188C321.19 162.283 321.191 162.101 321.191 161.92C321.191 159.459 321.017 157.081 320.673 154.839H331.569V151.571H323.411V152.661H330.481V153.75H314.665V152.661H322.324V151.571H320.023C319.436 149.228 318.649 147.262 317.737 145.867C316.671 144.234 315.42 143.371 314.122 143.371H310.859C308.87 143.371 307.049 145.371 305.733 149.003C304.479 152.462 303.789 157.049 303.789 161.92C303.789 166.791 304.479 171.378 305.733 174.837C307.049 178.468 308.87 180.469 310.859 180.469H314.122C315.913 180.469 317.539 178.894 318.821 175.915C319.956 173.281 320.74 169.681 321.046 165.733H332.113ZM331.026 164.643H320.1V163.554H331.026V164.643ZM313.578 151.571V154.839H316.31C316.662 157.074 316.841 159.453 316.841 161.92C316.841 165.94 316.368 169.728 315.473 172.874C314.694 175.614 313.644 177.645 312.49 178.662C311.586 177.865 310.73 176.429 310.018 174.465C308.807 171.122 308.139 166.667 308.139 161.92C308.139 157.173 308.807 152.717 310.018 149.375C310.73 147.411 311.585 145.975 312.489 145.178C313.728 146.272 314.851 148.551 315.638 151.571H313.578ZM318.901 151.571H316.76C315.956 148.36 314.8 145.93 313.447 144.584C313.671 144.503 313.897 144.461 314.122 144.461C315.949 144.461 317.755 147.166 318.901 151.571ZM310.859 179.379C309.383 179.379 307.887 177.588 306.755 174.465C305.544 171.122 304.877 166.667 304.877 161.92C304.877 157.173 305.544 152.717 306.755 149.375C307.887 146.252 309.383 144.461 310.859 144.461H311.667C310.655 145.403 309.744 146.939 308.996 149.003C307.742 152.462 307.052 157.049 307.052 161.92C307.052 166.791 307.742 171.378 308.996 174.837C309.744 176.901 310.655 178.437 311.667 179.379H310.859V179.379ZM317.822 175.484C316.741 177.996 315.427 179.379 314.122 179.379C313.897 179.379 313.672 179.337 313.447 179.256C314.672 178.045 315.725 175.966 316.519 173.173C317.441 169.93 317.928 166.039 317.928 161.92C317.928 159.459 317.754 157.081 317.41 154.839H319.573C319.925 157.074 320.104 159.454 320.104 161.92C320.104 162.101 320.103 162.283 320.101 162.465H319.012V165.733H319.955C319.654 169.53 318.903 172.975 317.822 175.484Z" fill="white"/>
<path d="M340.292 147.229C339.124 147.229 338.174 146.277 338.174 145.108V144.513H337.087V145.108C337.087 146.277 336.136 147.229 334.968 147.229H334.375V148.318H334.968C336.136 148.318 337.087 149.27 337.087 150.44V151.035H338.174V150.44C338.174 149.27 339.124 148.318 340.292 148.318H340.886V147.229H340.292ZM337.63 148.653C337.398 148.306 337.099 148.007 336.753 147.774C337.099 147.541 337.398 147.242 337.63 146.895C337.863 147.242 338.162 147.541 338.508 147.774C338.162 148.007 337.863 148.306 337.63 148.653Z" fill="white"/>
<path d="M327.19 173.415V172.82H326.102V173.415C326.102 174.585 325.152 175.536 323.984 175.536H323.39V176.626H323.984C325.152 176.626 326.102 177.577 326.102 178.747V179.342H327.19V178.747C327.19 177.577 328.14 176.626 329.308 176.626H329.902V175.536H329.308C328.14 175.536 327.19 174.585 327.19 173.415ZM326.646 176.96C326.413 176.613 326.115 176.314 325.769 176.081C326.115 175.848 326.413 175.549 326.646 175.202C326.879 175.549 327.177 175.848 327.524 176.081C327.178 176.314 326.879 176.613 326.646 176.96Z" fill="white"/>
<path d="M310.3 157.018H311.387V158.107H310.3V157.018Z" fill="white"/>
<path d="M312.484 157.018H313.572V158.107H312.484V157.018Z" fill="white"/>
<path d="M463.287 189.305C458.138 189.305 453.251 190.428 448.857 192.439C443.737 185.525 435.523 181.04 426.259 181.04C423.502 181.04 420.841 181.444 418.324 182.185C414.786 183.226 411.536 184.941 408.727 187.187C402.388 180.357 393.334 176.081 383.28 176.081C364.109 176.081 348.567 191.623 348.567 210.795C348.567 214.414 349.121 217.904 350.149 221.185C343.178 226.299 338.648 234.547 338.648 243.855C338.648 259.375 351.23 271.957 366.75 271.957C367.167 271.957 367.581 271.944 367.994 271.925C374.265 280.936 384.695 286.834 396.504 286.834C404.771 286.834 412.362 283.944 418.324 279.12C421.435 276.603 424.103 273.559 426.19 270.124C429.294 271.305 432.659 271.957 436.177 271.957C446.294 271.957 455.159 266.608 460.108 258.586C461.155 258.682 462.215 258.733 463.287 258.733C482.458 258.733 498 243.191 498 224.019C498 204.847 482.458 189.305 463.287 189.305Z" fill="#6BD2FF"/>
<path d="M437.057 229.656H436.139C436.133 228.455 435.35 227.396 434.203 227.04C433.142 216.232 424.054 207.992 413.194 207.992C402.334 207.992 393.246 216.232 392.185 227.04C391.038 227.396 390.254 228.455 390.248 229.656H389.33C387.303 229.656 385.659 231.299 385.659 233.327V240.67C385.659 242.697 387.303 244.341 389.33 244.341H390.248C390.248 245.862 391.481 247.094 393.002 247.094H393.919V250.766C393.919 255.328 397.618 259.026 402.18 259.026H405.062C405.479 260.643 406.935 261.774 408.605 261.779H417.783C419.81 261.779 421.454 260.136 421.454 258.108C421.454 256.081 419.81 254.437 417.783 254.437H408.605C406.935 254.442 405.479 255.574 405.062 257.19H402.18C398.631 257.19 395.755 254.314 395.755 250.766V247.094H396.673C398.194 247.094 399.426 245.862 399.426 244.341V229.656C399.425 228.533 398.742 227.523 397.701 227.104C398.638 219.258 405.292 213.352 413.194 213.352C421.095 213.352 427.749 219.258 428.687 227.104C427.645 227.523 426.962 228.533 426.961 229.656V244.341C426.961 245.862 428.194 247.094 429.715 247.094H433.386C434.907 247.094 436.139 245.862 436.139 244.341H437.057C439.085 244.341 440.728 242.697 440.728 240.67V233.327C440.728 231.299 439.085 229.656 437.057 229.656ZM408.605 256.273H417.783C418.797 256.273 419.618 257.094 419.618 258.108C419.618 259.122 418.797 259.944 417.783 259.944H408.605C407.591 259.944 406.769 259.122 406.769 258.108C406.769 257.094 407.591 256.273 408.605 256.273ZM389.33 242.505C388.316 242.505 387.495 241.683 387.495 240.67V233.327C387.495 232.313 388.316 231.491 389.33 231.491H390.248V242.505H389.33ZM397.591 244.341C397.591 244.848 397.18 245.259 396.673 245.259H393.002C392.495 245.259 392.084 244.848 392.084 244.341V229.656C392.084 229.149 392.495 228.738 393.002 228.738H396.673C397.18 228.738 397.591 229.149 397.591 229.656V244.341ZM413.194 211.299C404.282 211.311 396.812 218.04 395.874 226.902H394.039C395.129 217.147 403.377 209.769 413.194 209.769C423.01 209.769 431.258 217.147 432.349 226.902H430.513C429.575 218.04 422.106 211.311 413.194 211.299ZM434.304 244.341C434.304 244.848 433.893 245.259 433.386 245.259H429.715C429.208 245.259 428.797 244.848 428.797 244.341V229.656C428.797 229.149 429.208 228.738 429.715 228.738H433.386C433.893 228.738 434.304 229.149 434.304 229.656V244.341ZM438.893 240.67C438.893 241.683 438.071 242.505 437.057 242.505H436.139V231.491H437.057C438.071 231.491 438.893 232.313 438.893 233.327V240.67Z" fill="white"/>
<path d="M92.8752 168.009C92.2237 168.66 91.6863 169.396 91.2585 170.204C90.9698 170.75 86.1335 182.708 86.1335 182.708C82.4289 191.76 77.0435 199.857 70.1272 206.773L66.7482 210.153C59.7095 217.191 59.6168 228.584 66.5415 235.549C69.9196 238.946 74.4161 240.817 79.2024 240.817C79.2072 240.817 79.2122 240.817 79.2172 240.817C81.8696 240.817 84.4331 240.24 86.7675 239.149L93.0406 245.423C93.3732 245.755 93.8093 245.922 94.2453 245.922C94.6457 245.922 95.0451 245.779 95.3656 245.499L104.199 254.332C105.839 255.972 107.993 256.792 110.148 256.792C112.302 256.792 114.457 255.972 116.097 254.332C119.377 251.052 119.377 245.714 116.097 242.434L107.268 233.605L108.461 232.412C108.781 232.092 108.96 231.659 108.96 231.207C108.96 230.755 108.781 230.322 108.461 230.002L103.494 225.035C108.396 221.388 113.735 218.373 119.457 216.031C119.457 216.031 131.384 211.233 132.327 210.706C133.315 210.153 134.157 209.29 134.157 209.29C140.615 203.272 136.222 189.092 124.648 177.518C113.073 165.944 99.117 161.767 92.8752 168.009ZM89.789 237.352C90.51 236.82 91.1967 236.231 91.8423 235.586L95.3908 232.037C95.9297 231.498 96.4781 230.972 97.031 230.452L101.316 234.738L94.2453 241.809L89.789 237.352ZM106.608 251.923L97.7792 243.094L101.135 239.738L109.965 248.568C110.91 249.513 111.43 250.77 111.43 252.107C111.43 252.11 111.43 252.114 111.43 252.118C111.428 252.829 110.824 253.386 110.113 253.382C108.843 253.375 107.575 252.89 106.608 251.923ZM113.687 244.844C115.212 246.368 115.54 248.638 114.682 250.489C114.367 248.859 113.574 247.359 112.374 246.159L103.544 237.329L104.858 236.015L113.687 244.844ZM104.847 231.207L103.726 232.328L99.5686 228.171C99.9718 227.826 100.377 227.483 100.787 227.147L104.847 231.207ZM118.166 212.877C108.692 216.754 100.219 222.39 92.9815 229.628L89.433 233.176C86.703 235.906 83.0754 237.41 79.2159 237.41C79.2118 237.41 79.2077 237.41 79.2038 237.41C75.3302 237.41 71.6913 235.895 68.9578 233.146C63.3541 227.51 63.4436 218.276 69.1575 212.562L72.5365 209.183C79.7744 201.945 85.4099 193.472 89.2869 183.999L90.6277 180.723C92.1263 186.728 96.1982 193.595 102.385 199.781C107.763 205.159 113.918 209.156 119.715 211.033C120.303 211.224 120.882 211.39 121.45 211.533L118.166 212.877ZM104.805 186.641C104.831 186.728 104.855 186.815 104.884 186.903C105.572 189.028 107.019 191.266 108.959 193.206C111.078 195.325 113.394 196.741 115.52 197.363L110.546 202.337C108.573 200.881 106.638 199.215 104.794 197.371C102.95 195.527 101.284 193.591 99.828 191.618L104.805 186.641ZM118.875 194.008L118.875 194.008L118.871 194.012C118.01 194.861 114.586 194.014 111.368 190.797C109.825 189.253 108.643 187.452 108.125 185.854C107.743 184.674 107.756 183.692 108.157 183.291C108.364 183.084 108.723 182.981 109.185 182.981C109.621 182.981 110.147 183.073 110.72 183.259C112.318 183.776 114.12 184.958 115.664 186.502C118.885 189.723 119.73 193.153 118.875 194.008ZM131.747 206.881C131.354 207.274 131.169 207.444 130.503 207.812C129.836 208.18 129.178 208.37 129.178 208.37C126.979 209.043 124.067 208.86 120.765 207.791C118.36 207.012 115.878 205.82 113.416 204.286L121.279 196.423C121.281 196.421 121.283 196.419 121.284 196.418C123.882 193.82 122.502 188.521 118.073 184.093C116.133 182.152 113.895 180.705 111.77 180.017C109.258 179.203 107.118 179.51 105.747 180.881L105.747 180.88L97.8785 188.748C96.3447 186.286 95.1528 183.804 94.3741 181.4C93.303 178.093 93.121 175.176 93.7982 172.976C93.7982 172.976 94.0195 172.243 94.2843 171.788C94.5492 171.334 94.8888 170.813 95.2843 170.418C96.5848 169.117 98.4612 168.504 100.705 168.504C106.616 168.504 115.074 172.763 122.238 179.927C132.12 189.81 136.475 202.153 131.747 206.881Z" fill="white"/>
<path d="M153.881 187.034H138.298C137.357 187.034 136.594 187.796 136.594 188.737C136.594 189.678 137.357 190.441 138.298 190.441H153.881C154.822 190.441 155.585 189.678 155.585 188.737C155.585 187.796 154.822 187.034 153.881 187.034Z" fill="white"/>
<path d="M131.202 179.951C131.491 180.571 132.105 180.935 132.747 180.935C132.988 180.935 133.233 180.883 133.466 180.775L150.71 172.733C151.563 172.335 151.932 171.322 151.534 170.469C151.136 169.616 150.122 169.247 149.27 169.645L132.026 177.686C131.173 178.084 130.804 179.098 131.202 179.951Z" fill="white"/>
<path d="M125.152 173.487C125.471 173.755 125.859 173.885 126.246 173.885C126.732 173.885 127.215 173.679 127.552 173.277L140.353 158.023C140.957 157.302 140.863 156.227 140.143 155.623C139.422 155.018 138.347 155.112 137.742 155.833L124.942 171.087C124.337 171.807 124.431 172.882 125.152 173.487Z" fill="white"/>
<path d="M117.923 167.969C118.071 168.008 118.219 168.027 118.365 168.027C119.117 168.027 119.806 167.525 120.01 166.764L124.751 149.068C124.994 148.159 124.455 147.224 123.546 146.981C122.638 146.737 121.703 147.277 121.459 148.186L116.718 165.882C116.475 166.791 117.014 167.725 117.923 167.969Z" fill="white"/>
<path d="M384.353 21.0737C381.679 21.0737 379.141 21.6566 376.858 22.7014C374.199 19.11 369.933 16.7809 365.121 16.7809C363.689 16.7809 362.307 16.9904 361 17.3753C359.162 17.9163 357.474 18.807 356.015 19.9735C352.723 16.4259 348.02 14.2051 342.798 14.2051C332.841 14.2051 324.769 22.2774 324.769 32.235C324.769 34.115 325.057 35.9277 325.591 37.6317C321.969 40.2878 319.617 44.5716 319.617 49.4064C319.617 57.4673 326.152 64.0021 334.213 64.0021C334.43 64.0021 334.645 63.9952 334.859 63.9858C338.116 68.6656 343.533 71.7292 349.667 71.7292C353.961 71.7292 357.903 70.2283 361 67.7225C362.616 66.4151 364.001 64.8341 365.086 63.05C366.698 63.6633 368.445 64.0021 370.272 64.0021C375.527 64.0021 380.132 61.224 382.702 57.0575C383.246 57.107 383.796 57.1335 384.353 57.1335C394.311 57.1335 402.383 49.0613 402.383 39.1037C402.383 29.1459 394.311 21.0737 384.353 21.0737Z" fill="#82D9FF"/>
<path d="M371.027 41.6163H371.009C370.838 36.624 367.618 32.2498 362.901 30.6046C362.8 29.9471 362.236 29.4607 361.571 29.4581H356.167C355.502 29.4607 354.938 29.9471 354.837 30.6046C350.121 32.2498 346.9 36.624 346.729 41.6163H346.711C345.965 41.6163 345.36 42.2211 345.36 42.9672V43.8678C345.36 44.6139 345.965 45.2187 346.711 45.2187H371.027C371.773 45.2187 372.378 44.6139 372.378 43.8678V42.9672C372.378 42.2211 371.773 41.6163 371.027 41.6163ZM354.816 31.5705V39.3648C354.816 39.6135 355.018 39.8151 355.267 39.8151C355.515 39.8151 355.717 39.6135 355.717 39.3648V30.809C355.717 30.5604 355.919 30.3587 356.167 30.3587H358.419V40.2654C358.419 40.5141 358.62 40.7157 358.869 40.7157C359.118 40.7157 359.319 40.5141 359.319 40.2654V30.3587H361.571C361.82 30.3587 362.021 30.5604 362.021 30.809V39.3648C362.021 39.6135 362.223 39.8151 362.471 39.8151C362.72 39.8151 362.922 39.6135 362.922 39.3648V31.5705C367.114 33.1768 369.942 37.1303 370.109 41.6163H347.63C347.796 37.1303 350.624 33.1768 354.816 31.5705ZM371.477 43.8678C371.477 44.1165 371.276 44.3181 371.027 44.3181H346.711C346.462 44.3181 346.261 44.1165 346.261 43.8678V42.9672C346.261 42.7185 346.462 42.5169 346.711 42.5169H371.027C371.276 42.5169 371.477 42.7185 371.477 42.9672V43.8678Z" fill="white"/>
<path d="M356.618 49.2713H350.764C350.018 49.2713 349.413 49.8762 349.413 50.6222V52.4235C349.413 52.6721 349.614 52.8738 349.863 52.8738C350.112 52.8738 350.313 52.6721 350.313 52.4235V50.6222C350.313 50.3736 350.515 50.1719 350.764 50.1719H356.618C356.866 50.1719 357.068 49.9703 357.068 49.7216C357.068 49.473 356.866 49.2713 356.618 49.2713Z" fill="white"/>
<path d="M371.928 49.2714H370.082C369.866 48.2238 368.945 47.4715 367.875 47.4701H349.863C348.62 47.4716 347.613 48.4788 347.611 49.7217H345.81C345.562 49.7217 345.36 49.9233 345.36 50.172V53.7744C345.36 54.023 345.562 54.2247 345.81 54.2247H347.747C348.146 55.5584 349.371 56.4732 350.764 56.4762H353.465C355.526 56.4703 357.433 55.3873 358.494 53.6208C358.624 53.4139 358.896 53.351 359.103 53.4802C359.16 53.5158 359.208 53.5639 359.244 53.6208C360.305 55.3873 362.212 56.4703 364.273 56.4762H366.974C368.54 56.4743 369.867 55.3238 370.091 53.7744H371.928C372.176 53.7744 372.378 53.5727 372.378 53.3241V49.7217C372.378 49.473 372.176 49.2714 371.928 49.2714ZM347.611 53.3241H346.261V51.9732H347.611V53.3241ZM347.611 51.0726H346.261V50.6223H347.611V51.0726ZM369.226 53.3241C369.225 54.5669 368.217 55.5741 366.974 55.5756H364.273C362.529 55.5705 360.914 54.6538 360.016 53.1588C359.633 52.5246 358.808 52.3214 358.174 52.7049C357.988 52.8173 357.832 52.973 357.72 53.1588C356.822 54.6532 355.209 55.5698 353.465 55.5756H350.764C349.521 55.5741 348.514 54.5669 348.512 53.3241V49.7217C348.512 48.9756 349.117 48.3707 349.863 48.3707H367.875C368.621 48.3707 369.226 48.9756 369.226 49.7217V53.3241ZM371.477 52.8738H370.127V51.5229H371.477V52.8738ZM371.477 50.6223H370.127V50.172H371.477V50.6223Z" fill="white"/>
<path d="M359.319 49.2713H358.419C358.17 49.2713 357.968 49.473 357.968 49.7216C357.968 49.9703 358.17 50.1719 358.419 50.1719H359.319C359.568 50.1719 359.77 49.9703 359.77 49.7216C359.77 49.473 359.568 49.2713 359.319 49.2713Z" fill="white"/>
<path d="M384.544 247.966C376.166 247.966 368.216 249.792 361.065 253.064C352.736 241.814 339.37 234.518 324.297 234.518C319.812 234.518 315.482 235.174 311.387 236.38C305.631 238.075 300.343 240.865 295.773 244.519C285.458 233.406 270.727 226.449 254.369 226.449C223.175 226.449 197.888 251.736 197.888 282.93C197.888 288.819 198.79 294.498 200.463 299.836C189.119 308.156 181.75 321.576 181.75 336.722C181.75 361.974 202.221 382.445 227.473 382.445C228.152 382.445 228.826 382.423 229.497 382.393C239.7 397.054 256.67 406.651 275.885 406.651C289.335 406.651 301.687 401.949 311.387 394.099C316.449 390.004 320.789 385.051 324.186 379.462C329.236 381.383 334.71 382.445 340.435 382.445C356.896 382.445 371.32 373.742 379.372 360.69C381.076 360.845 382.8 360.928 384.544 360.928C415.737 360.928 441.025 335.64 441.025 304.447C441.025 273.253 415.737 247.966 384.544 247.966Z" fill="#1AB9FF"/>
<path d="M272.488 325.635C274.219 325.635 275.624 327.04 275.624 328.771V329.073L275.627 329.114C275.806 332.346 278.487 334.908 281.761 334.908C283.492 334.908 284.898 336.314 284.898 338.045C284.898 339.772 283.495 341.178 281.768 341.181H281.761C278.487 341.182 275.806 343.744 275.627 346.976L275.624 347.017V347.318C275.624 349.049 274.219 350.455 272.488 350.455C270.757 350.455 269.351 349.049 269.351 347.318C269.351 343.922 266.594 341.181 263.205 341.181H263.199C261.472 341.178 260.069 339.772 260.069 338.045C260.069 336.314 261.475 334.908 263.205 334.908C266.594 334.908 269.351 332.168 269.351 328.771C269.351 327.041 270.757 325.635 272.488 325.635ZM298.965 291.562C297.197 294.998 294.93 298.187 292.207 301.022L291.657 301.584C288.684 304.552 285.301 307.005 281.636 308.891L279.044 310.225L281.636 311.558C285.301 313.444 288.684 315.897 291.657 318.865V318.866C294.625 321.839 297.079 325.222 298.965 328.887L300.299 331.479L301.633 328.887C303.519 325.222 305.972 321.838 308.941 318.865C311.913 315.897 315.298 313.444 318.962 311.558L321.553 310.225L318.962 308.891C315.298 307.005 311.913 304.552 308.941 301.584H308.942C305.973 298.611 303.519 295.227 301.633 291.562L300.299 288.97L298.965 291.562ZM328.12 269.99C329.85 269.99 331.256 271.396 331.256 273.127C331.256 273.218 331.255 273.264 331.253 273.299L331.248 273.382L331.253 273.465C331.432 276.702 334.12 279.263 337.393 279.263C339.124 279.264 340.53 280.669 340.53 282.4C340.53 284.128 339.126 285.534 337.399 285.537H337.393C334.122 285.537 331.432 288.092 331.253 291.332L331.249 291.412L331.253 291.493C331.256 291.535 331.256 291.58 331.256 291.674C331.256 293.404 329.85 294.81 328.12 294.81C326.389 294.81 324.983 293.405 324.983 291.674C324.983 288.277 322.225 285.537 318.836 285.537H318.829C317.103 285.533 315.7 284.128 315.7 282.4C315.7 280.669 317.105 279.264 318.836 279.263C322.226 279.263 324.983 276.518 324.983 273.127C324.983 271.396 326.388 269.99 328.12 269.99ZM297.171 273.127C297.171 271.395 298.579 269.99 300.304 269.99C302.029 269.99 303.436 271.395 303.436 273.127V273.14C303.436 282.143 307.011 290.778 313.38 297.143C319.696 303.459 328.244 307.029 337.169 307.088L337.221 307.089L337.273 307.086C337.293 307.084 337.317 307.084 337.397 307.084C339.122 307.084 340.53 308.488 340.53 310.22C340.53 311.958 339.121 313.361 337.397 313.361H337.383C328.38 313.361 319.745 316.936 313.38 323.305C307.01 329.67 303.436 338.306 303.436 347.309C303.436 349.049 302.026 350.455 300.304 350.455C298.659 350.455 297.3 349.173 297.181 347.552L297.179 347.513L297.174 347.475L297.162 347.309C297.162 338.306 293.587 329.67 287.217 323.305C280.852 316.936 272.217 313.361 263.214 313.361H263.21C261.486 313.361 260.078 311.958 260.078 310.22C260.078 308.488 261.485 307.084 263.21 307.084C263.291 307.084 263.314 307.084 263.334 307.086L263.386 307.089L263.438 307.088C272.359 307.029 280.906 303.459 287.217 297.142C293.366 290.998 296.91 282.738 297.148 274.073L297.171 274.062V273.127Z" fill="white" stroke="#1AB9FF" stroke-width="3"/>
</svg>
