<svg width="71" height="63" viewBox="0 0 71 63" fill="none" xmlns="http://www.w3.org/2000/svg">
<path d="M28.2718 45.6162C28.0057 45.6162 27.7376 45.5247 27.5189 45.3384L19.9928 38.9299C19.7331 38.7085 19.5839 38.3853 19.5839 38.0439C19.5839 37.7032 19.7338 37.38 19.9928 37.1587L27.5189 30.7501C28.0076 30.3334 28.7417 30.3925 29.1584 30.8812C29.5744 31.3706 29.516 32.1046 29.0266 32.5207L22.5408 38.0439L29.0266 43.5672C29.516 43.9839 29.5744 44.7179 29.1584 45.2066C28.928 45.4773 28.6008 45.6162 28.2718 45.6162Z" fill="white"/>
<path d="M43.1293 45.6162C42.8003 45.6162 42.4732 45.4773 42.2434 45.2066C41.8267 44.7179 41.8858 43.9839 42.3745 43.5672L48.8603 38.0439L42.3745 32.5207C41.8858 32.1046 41.8267 31.3706 42.2434 30.8812C42.6594 30.3925 43.3941 30.3334 43.8822 30.7501L51.4084 37.1587C51.668 37.38 51.8173 37.7032 51.8173 38.0439C51.8173 38.3853 51.668 38.7085 51.4084 38.9299L43.8822 45.3384C43.6635 45.5247 43.3954 45.6162 43.1293 45.6162Z" fill="white"/>
<path d="M33.0364 50.4229C32.9565 50.4229 32.8761 50.4145 32.7949 50.3976C32.1667 50.2652 31.7643 49.648 31.8967 49.0197L36.5872 26.7495C36.7196 26.1213 37.3362 25.7189 37.9651 25.8513C38.5934 25.9837 38.9958 26.6002 38.8634 27.2291L34.1728 49.4993C34.0573 50.0471 33.5744 50.4229 33.0364 50.4229Z" fill="white"/>
<path d="M63.1157 62.556H8.28558C3.97991 62.556 0.47644 59.0531 0.47644 54.7468V8.21002C0.47644 3.90435 3.97991 0.400879 8.28558 0.400879H63.1157C67.4214 0.400879 70.9248 3.90435 70.9248 8.21002V54.7468C70.9248 59.0531 67.4214 62.556 63.1157 62.556ZM8.28558 2.72701C5.26239 2.72701 2.80257 5.18683 2.80257 8.21002V54.7468C2.80257 57.77 5.26239 60.2298 8.28558 60.2298H63.1157C66.1389 60.2298 68.5987 57.77 68.5987 54.7468V8.21002C68.5987 5.18683 66.1389 2.72701 63.1157 2.72701H8.28558Z" fill="white"/>
<path d="M69.7618 19.0247H1.6395C0.996963 19.0247 0.47644 18.5042 0.47644 17.8617C0.47644 17.2198 0.996963 16.6986 1.6395 16.6986H69.7618C70.4043 16.6986 70.9248 17.2198 70.9248 17.8617C70.9248 18.5042 70.4043 19.0247 69.7618 19.0247Z" fill="white"/>
<path d="M20.3485 13.4595C18.3196 13.4595 16.6678 11.8077 16.6678 9.7788C16.6678 7.74928 18.3196 6.09814 20.3485 6.09814C22.378 6.09814 24.0292 7.74928 24.0292 9.7788C24.0292 11.8077 22.378 13.4595 20.3485 13.4595ZM20.3485 8.42427C19.6021 8.42427 18.994 9.03176 18.994 9.7788C18.994 10.5258 19.6021 11.1333 20.3485 11.1333C21.0955 11.1333 21.703 10.5258 21.703 9.7788C21.703 9.03176 21.0955 8.42427 20.3485 8.42427Z" fill="white"/>
<path d="M9.03978 13.4236C7.01027 13.4236 5.35913 11.7724 5.35913 9.74291C5.35913 7.71339 7.01027 6.06226 9.03978 6.06226C11.0693 6.06226 12.7204 7.71339 12.7204 9.74291C12.7204 11.7724 11.0693 13.4236 9.03978 13.4236ZM9.03978 8.38838C8.2934 8.38838 7.68526 8.99652 7.68526 9.74291C7.68526 10.4899 8.2934 11.0974 9.03978 11.0974C9.78682 11.0974 10.3943 10.4899 10.3943 9.74291C10.3943 8.99652 9.78682 8.38838 9.03978 8.38838Z" fill="white"/>
<path d="M31.6572 13.4944C29.6283 13.4944 27.9772 11.8433 27.9772 9.81379C27.9772 7.78492 29.6283 6.13379 31.6572 6.13379C33.6867 6.13379 35.3378 7.78492 35.3378 9.81379C35.3378 11.8433 33.6867 13.4944 31.6572 13.4944ZM31.6572 8.45927C30.9108 8.45927 30.3033 9.06676 30.3033 9.81379C30.3033 10.5608 30.9108 11.1683 31.6572 11.1683C32.4042 11.1683 33.0117 10.5608 33.0117 9.81379C33.0117 9.06676 32.4042 8.45927 31.6572 8.45927Z" fill="white"/>
</svg>
