<svg width="69" height="70" viewBox="0 0 69 70" fill="none" xmlns="http://www.w3.org/2000/svg">
<path d="M47.0016 56.6987C43.8552 56.6987 41.165 55.776 39.2508 53.8618C33.8411 48.4521 36.333 36.8669 45.1765 26.3146C46.1012 25.2138 47.462 24.5461 48.9118 24.4824C50.3767 24.4298 51.8134 24.9751 52.8474 26.0091L53.8935 27.0562C54.2982 27.4609 54.2982 28.1175 53.8935 28.5212C53.4888 28.9259 52.8332 28.9259 52.4285 28.5212L51.3824 27.474C50.7572 26.8498 49.8911 26.5099 49.0018 26.5534C48.1186 26.5918 47.3234 26.9793 46.7639 27.646C38.7581 37.1987 36.158 47.839 40.7158 52.3969C45.2665 56.9476 55.9018 54.3454 65.4565 46.3467C66.1273 45.7832 66.5178 44.987 66.5562 44.1048C66.5947 43.2175 66.2568 42.3484 65.6275 41.7191L64.5814 40.673C64.1767 40.2683 64.1767 39.6127 64.5814 39.208C64.986 38.8033 65.6416 38.8033 66.0463 39.208L67.0925 40.2541C68.1315 41.2932 68.69 42.7288 68.6262 44.1948C68.5635 45.6426 67.8937 47.0054 66.7879 47.9341C59.974 53.6382 52.732 56.6987 47.0016 56.6987Z" fill="white"/>
<path d="M63.4847 41.7384C62.5134 41.7384 61.6019 41.358 60.92 40.669C60.2411 39.9982 59.8617 39.0917 59.8587 38.1255C59.8556 37.1553 60.234 36.2407 60.924 35.5507C61.6019 34.8657 62.5124 34.4863 63.4837 34.4863C64.4559 34.4863 65.3675 34.8657 66.0494 35.5537C66.7354 36.2407 67.1137 37.1553 67.1107 38.1255C67.1087 39.0897 66.7303 39.9942 66.0464 40.673C65.3645 41.36 64.4549 41.7384 63.4847 41.7384ZM63.4847 36.5583C63.0699 36.5583 62.6824 36.7192 62.393 37.0116C62.0925 37.3121 61.9297 37.7046 61.9307 38.1204C61.9317 38.5302 62.0936 38.9157 62.3849 39.204C62.6824 39.5045 63.0699 39.6664 63.4847 39.6664C63.8995 39.6664 64.287 39.5045 64.5773 39.2121L64.5854 39.204C64.8768 38.9157 65.0377 38.5302 65.0387 38.1204C65.0397 37.7046 64.8778 37.3121 64.5814 37.0156C64.288 36.7192 63.8995 36.5583 63.4847 36.5583Z" fill="white"/>
<path d="M54.9923 33.2399C54.0645 33.2399 53.1378 32.8908 52.4326 32.1927C51.7416 31.5017 51.3632 30.5902 51.3632 29.622C51.3632 28.6537 51.7416 27.7422 52.4286 27.0562C53.847 25.654 56.1446 25.654 57.557 27.0522C57.56 27.0552 57.5621 27.0572 57.5651 27.0603C58.9633 28.4726 58.9633 30.7713 57.5651 32.1847C56.8538 32.8888 55.9221 33.2399 54.9923 33.2399ZM54.9943 28.073C54.5947 28.073 54.195 28.2238 53.8895 28.5252C53.5981 28.8166 53.4352 29.2071 53.4352 29.622C53.4352 30.0368 53.5981 30.4283 53.8935 30.7237C54.5006 31.3217 55.4911 31.3217 56.1001 30.7197C56.694 30.1197 56.695 29.1313 56.0961 28.5212C55.7926 28.2217 55.3939 28.073 54.9943 28.073Z" fill="white"/>
<path d="M37.9731 59.0741C36.933 59.0741 35.9476 58.6614 35.1949 57.9107C33.6459 56.3617 33.6459 53.8435 35.1938 52.2956L37.5684 49.9211C37.9731 49.5164 38.6287 49.5164 39.0333 49.9211C39.438 50.3258 39.438 50.9814 39.0333 51.386L36.6588 53.7606C36.2997 54.1207 36.1014 54.5973 36.1014 55.1021C36.1014 55.608 36.2997 56.0845 36.6588 56.4447C37.019 56.8048 37.4864 57.0021 37.9741 57.0021H37.9913C38.5083 56.9981 38.9878 56.7998 39.345 56.4437L41.7185 54.0702C42.1231 53.6655 42.7787 53.6655 43.1834 54.0702C43.5881 54.4748 43.5881 55.1304 43.1834 55.5351L40.8089 57.9096C40.0653 58.6523 39.0718 59.065 38.0095 59.0741C37.9973 59.0741 37.9852 59.0741 37.9731 59.0741Z" fill="white"/>
<path d="M22.1234 64.6539C19.1449 64.6539 16.4557 63.7151 14.5001 61.7594C10.4471 57.7064 10.6211 50.4949 14.9351 43.8155C15.2457 43.3339 15.8871 43.1963 16.3667 43.5069C16.8483 43.8175 16.9859 44.4579 16.6753 44.9385C12.9056 50.7781 12.6193 56.9486 15.965 60.2944C20.2062 64.5356 28.8321 62.8086 35.1959 56.4468C35.6006 56.0421 36.2562 56.0421 36.6609 56.4468C37.0656 56.8515 37.0656 57.5071 36.6609 57.9118C32.268 62.3047 26.834 64.6539 22.1234 64.6539Z" fill="white"/>
<path d="M20.6867 47.4496C18.6491 47.4496 16.6115 46.6736 15.0605 45.1226C11.9586 42.0207 11.9586 36.9732 15.0605 33.8712C18.1635 30.7703 23.211 30.7713 26.3119 33.8722C27.8123 35.3726 28.6389 37.3708 28.6389 39.4974C28.6389 41.6251 27.8123 43.6222 26.3119 45.1226C24.7609 46.6736 22.7233 47.4496 20.6867 47.4496ZM20.6857 33.6163C19.1793 33.6163 17.6728 34.1899 16.5255 35.3362C14.2309 37.6308 14.2309 41.363 16.5255 43.6576C18.8211 45.9532 22.5534 45.9512 24.8469 43.6576C25.9558 42.5488 26.5669 41.0717 26.5669 39.4974C26.5669 37.9242 25.9558 36.4471 24.8469 35.3372C23.6996 34.1899 22.1922 33.6163 20.6857 33.6163Z" fill="white"/>
<path d="M20.6857 42.8392C19.7933 42.8392 18.9536 42.4922 18.3223 41.8609C17.0192 40.5578 17.0192 38.4372 18.3223 37.1341C19.5859 35.8705 21.7895 35.8725 23.0491 37.1341C24.3522 38.4372 24.3522 40.5578 23.0491 41.8609C22.4188 42.4922 21.579 42.8392 20.6857 42.8392ZM20.6857 38.2278C20.3468 38.2278 20.0271 38.3593 19.7873 38.5991C19.2915 39.0948 19.2915 39.9002 19.7873 40.3959C20.2668 40.8755 21.1045 40.8745 21.5841 40.3959C22.0798 39.9002 22.0798 39.0948 21.5841 38.5991C21.3443 38.3593 21.0256 38.2278 20.6857 38.2278Z" fill="white"/>
<path d="M41.9826 69.0934H3.4227C1.67444 69.0934 0.251953 67.6719 0.251953 65.9236V11.419C0.251953 9.67074 1.67444 8.24927 3.4227 8.24927H12.1245C12.6972 8.24927 13.1605 8.71264 13.1605 9.28527C13.1605 9.85791 12.6972 10.3213 12.1245 10.3213H3.4227C2.81667 10.3213 2.32396 10.814 2.32396 11.419V65.9236C2.32396 66.5185 2.82679 67.0214 3.4227 67.0214H41.9826C42.5774 67.0214 43.0803 66.5185 43.0803 65.9236V55.3461C43.0803 54.7734 43.5436 54.31 44.1163 54.31C44.6889 54.31 45.1523 54.7734 45.1523 55.3461V65.9236C45.1523 67.6719 43.7308 69.0934 41.9826 69.0934Z" fill="white"/>
<path d="M44.1163 30.3787C43.5437 30.3787 43.0803 29.9153 43.0803 29.3427V11.419C43.0803 10.814 42.5876 10.3213 41.9826 10.3213H33.2797C32.7071 10.3213 32.2437 9.85791 32.2437 9.28527C32.2437 8.71264 32.7071 8.24927 33.2797 8.24927H41.9826C43.7308 8.24927 45.1523 9.67074 45.1523 11.419V29.3427C45.1523 29.9153 44.6889 30.3787 44.1163 30.3787Z" fill="white"/>
<path d="M31.3635 13.6498H14.0387C12.4129 13.6498 11.0895 12.3265 11.0895 10.7006V7.87082C11.0895 6.24498 12.4129 4.92266 14.0387 4.92266H17.5676C18.0492 2.52689 20.1657 0.716919 22.696 0.716919C25.2314 0.716919 27.352 2.52689 27.8336 4.92266H31.3635C32.9893 4.92266 34.3127 6.24498 34.3127 7.87082V10.7006C34.3127 12.3265 32.9893 13.6498 31.3635 13.6498ZM14.0387 6.99467C13.5551 6.99467 13.1616 7.38722 13.1616 7.87082V10.7006C13.1616 11.1842 13.5551 11.5778 14.0387 11.5778H31.3635C31.8471 11.5778 32.2407 11.1842 32.2407 10.7006V7.87082C32.2407 7.38722 31.8471 6.99467 31.3635 6.99467H26.9008C26.3281 6.99467 25.8648 6.5313 25.8648 5.95866C25.8648 4.2104 24.4433 2.78893 22.696 2.78893C20.9549 2.78893 19.5374 4.2104 19.5374 5.95866C19.5374 6.5313 19.0741 6.99467 18.5014 6.99467H14.0387Z" fill="white"/>
<path d="M22.7022 19.2417H6.88287C6.31023 19.2417 5.84686 18.7783 5.84686 18.2057C5.84686 17.633 6.31023 17.1697 6.88287 17.1697H22.7022C23.2748 17.1697 23.7382 17.633 23.7382 18.2057C23.7382 18.7783 23.2748 19.2417 22.7022 19.2417Z" fill="white"/>
<path d="M38.5225 23.8734H6.88287C6.31023 23.8734 5.84686 23.41 5.84686 22.8374C5.84686 22.2648 6.31023 21.8014 6.88287 21.8014H38.5225C39.0952 21.8014 39.5585 22.2648 39.5585 22.8374C39.5585 23.41 39.0952 23.8734 38.5225 23.8734Z" fill="white"/>
<path d="M38.5225 28.5051H6.88287C6.31023 28.5051 5.84686 28.0417 5.84686 27.4691C5.84686 26.8965 6.31023 26.4331 6.88287 26.4331H38.5225C39.0952 26.4331 39.5585 26.8965 39.5585 27.4691C39.5585 28.0417 39.0952 28.5051 38.5225 28.5051Z" fill="white"/>
</svg>
