<svg width="79" height="79" viewBox="0 0 79 79" fill="none" xmlns="http://www.w3.org/2000/svg">
<path d="M60.4117 67.2724C59.6341 67.696 58.8457 68.1333 58.0474 68.5759C51.2916 72.3215 43.6345 76.5671 36.2752 75.9098L10.2129 73.5833C10.179 73.5802 10.1449 73.5787 10.1108 73.5787H2.93662V60.681H10.1106C10.3823 60.681 10.6453 60.5847 10.8526 60.4093C10.8729 60.3922 12.926 58.6672 16.0515 57.0436C16.6146 56.7512 16.8338 56.0575 16.5415 55.4945C16.2489 54.9316 15.5556 54.712 14.9923 55.0046C12.357 56.3737 10.4452 57.7993 9.70429 58.3833H1.78786C1.1534 58.3833 0.638947 58.8978 0.638947 59.5323V74.7276C0.638947 75.3621 1.15324 75.8765 1.78786 75.8765H10.0594L36.0708 78.1986C36.6583 78.2511 37.2444 78.2761 37.8307 78.2761C45.2902 78.2761 52.6303 74.2067 59.1614 70.5857C59.9549 70.1458 60.7384 69.7113 61.5111 69.2902C62.0682 68.9865 62.2738 68.2888 61.9702 67.7317C61.6667 67.1743 60.9691 66.9688 60.4117 67.2724Z" fill="white"/>
<path d="M78.0281 54.5466C76.8065 52.9274 74.6783 52.3681 72.8414 53.1371C72.7944 52.4024 72.5457 51.6866 72.11 51.0766C70.9612 49.4684 68.7773 48.9503 67.03 49.8713L64.2977 51.3113C64.2627 50.6696 64.0734 50.0382 63.736 49.4806C62.6459 47.6786 60.3424 47.0529 58.4918 48.0559L56.4496 49.1631C56.4127 48.3692 56.1438 47.5953 55.6639 46.942C54.4664 45.3124 52.2982 44.8111 50.5084 45.75L35.7647 53.4828C34.1067 52.8462 28.8212 51.1246 22.6458 52.2743C21.5805 52.4727 20.483 52.7595 19.3834 53.1272C18.7817 53.3284 18.457 53.9792 18.658 54.581C18.8594 55.1827 19.5105 55.5073 20.1119 55.3064C21.1112 54.9723 22.1051 54.7123 23.0662 54.5333C29.6585 53.3058 35.3001 55.7718 35.3547 55.7961C35.5028 55.8626 35.6632 55.897 35.8255 55.897H51.1719C52.2623 55.897 53.1493 56.7866 53.1493 57.88C53.1493 58.8767 52.4057 59.7224 51.4197 59.8473L31.9692 62.3109C31.3938 62.3838 30.9629 62.8741 30.9648 63.454C30.9665 64.034 31.4003 64.5217 31.9761 64.5911L40.2368 65.5868C48.2389 66.5511 56.193 64.9903 63.24 61.0728L73.5628 55.3344C74.4709 54.8612 75.5757 55.111 76.1936 55.9303C76.9657 56.9048 76.6301 58.4676 75.5245 59.0367L64.4486 65.0725C63.1243 65.7685 64.2593 67.8238 65.5481 67.0901L76.624 61.0543C77.7465 60.4428 78.5451 59.3748 78.8154 58.1242C79.0859 56.8724 78.7989 55.5684 78.0281 54.5466ZM51.5757 47.7847C52.352 47.3776 53.2925 47.5953 53.8125 48.3027C54.4512 49.1264 54.1612 50.4331 53.2326 50.9072L48.267 53.5993H40.4897L51.5757 47.7847ZM52.6206 53.8526L59.5869 50.0758C60.3573 49.6583 61.316 49.9194 61.77 50.6701C62.2649 51.4473 61.9552 52.5696 61.1304 52.9806L55.0882 56.1651C54.6188 55.0948 53.7251 54.2521 52.6206 53.8526ZM62.1237 59.0646C55.8046 62.5775 48.7087 64.0738 41.5394 63.4147L51.7085 62.1267C53.5951 61.8878 55.0701 60.4297 55.3843 58.6062L68.1012 51.9038C68.8366 51.5163 69.7562 51.7346 70.2402 52.412C70.8262 53.1907 70.5541 54.4058 69.6906 54.858L62.1237 59.0646Z" fill="white"/>
<path d="M27.3921 31.2163C28.6896 31.2163 29.9379 30.9356 31.1019 30.382C31.6749 30.1096 31.9186 29.424 31.646 28.851C31.3736 28.2782 30.6885 28.0343 30.1151 28.3069C29.2618 28.7127 28.3456 28.9185 27.3921 28.9185C23.8909 28.9185 21.0424 26.0699 21.0424 22.5688C21.0424 19.0676 23.8909 16.2192 27.3921 16.2192C30.8932 16.2192 33.7417 19.0676 33.7417 22.5688C33.7417 23.6408 33.4699 24.6998 32.9558 25.6315C32.6492 26.1871 32.8509 26.8859 33.4065 27.1924C33.9622 27.4989 34.661 27.2971 34.9674 26.7417C35.6687 25.4709 36.0394 24.028 36.0394 22.5686C36.0394 17.8004 32.1602 13.9213 27.3921 13.9213C22.624 13.9213 18.7447 17.8004 18.7447 22.5686C18.7447 27.3369 22.624 31.2163 27.3921 31.2163Z" fill="white"/>
<path d="M9.45219 25.9846L11.8333 26.3425C12.2221 27.9555 12.8552 29.4834 13.7227 30.9013L12.2912 32.8391C11.6149 33.7548 11.7083 35.0036 12.5134 35.8084L14.1526 37.4477C14.9575 38.2527 16.2064 38.3461 17.122 37.6697L19.0597 36.2384C20.4775 37.1059 22.0052 37.7391 23.6185 38.1279L23.9765 40.5091C24.1458 41.6347 25.0949 42.4517 26.2331 42.4517H28.5512C29.6896 42.4517 30.6387 41.6347 30.8078 40.5089L31.1657 38.1279C32.7789 37.7391 34.3067 37.1059 35.7245 36.2384L37.6623 37.6699C38.5779 38.3461 39.8268 38.2528 40.6316 37.4479L42.2708 35.8087C43.0759 35.0039 43.1693 33.755 42.4929 32.8392L41.0616 30.9016C41.9291 29.4838 42.5623 27.956 42.951 26.3428L45.3319 25.9849C46.4576 25.8156 47.2748 24.8667 47.2748 23.7282V23.7178H54.0927V38.3612C54.0927 39.8385 55.2947 41.0405 56.772 41.0405H61.6802C62.2056 43.3823 64.3001 45.1379 66.7982 45.1379C69.6911 45.1379 72.0447 42.7844 72.0447 39.8914C72.0447 36.9986 69.6912 34.6449 66.7982 34.6449C64.3 34.6449 62.2055 36.4006 61.68 38.7426H56.7719C56.5615 38.7426 56.3904 38.5716 56.3904 38.3612V23.7178H61.68C62.2055 26.0598 64.3 27.8155 66.7982 27.8155C69.6911 27.8155 72.0447 25.462 72.0447 22.569C72.0447 19.676 69.6912 17.3225 66.7982 17.3225C64.3001 17.3225 62.2056 19.0781 61.68 21.42H56.3907V6.77684C56.3907 6.56647 56.5618 6.39539 56.7722 6.39539H61.6803C62.2058 8.73741 64.3003 10.493 66.7985 10.493C69.6914 10.493 72.045 8.13948 72.045 5.24648C72.045 2.35348 69.6912 0 66.7984 0C64.3003 0 62.2058 1.75555 61.6802 4.09757H56.772C55.2947 4.09757 54.0927 5.29938 54.0927 6.77668V21.4198H47.2748V21.4097C47.2748 20.2715 46.4578 19.3224 45.3321 19.1532L42.951 18.7953C42.5622 17.182 41.9291 15.6543 41.0616 14.2364L42.4929 12.2988C43.1693 11.383 43.076 10.1341 42.2709 9.32937L40.6317 7.69001C39.8269 6.88508 38.578 6.79182 37.6623 7.46802L35.7246 8.89931C34.3067 8.03185 32.7789 7.39861 31.1658 7.00998L30.8079 4.62883C30.6388 3.50316 29.6897 2.686 28.5514 2.686H26.2331C25.0949 2.686 24.1458 3.503 23.9765 4.62883L23.6185 7.00998C22.0054 7.39876 20.4776 8.03185 19.0597 8.89931L17.122 7.46802C16.2066 6.79167 14.9575 6.88492 14.1526 7.69001L12.5134 9.32906C11.7083 10.134 11.6149 11.3829 12.2912 12.2985L13.7225 14.2361C12.8551 15.654 12.2218 17.1819 11.8332 18.795L9.45204 19.1529C8.32636 19.3221 7.50935 20.2712 7.50935 21.4094V23.7276C7.50935 24.8664 8.32651 25.8153 9.45219 25.9846ZM66.7984 36.9425C68.4243 36.9425 69.747 38.2652 69.747 39.8911C69.747 41.517 68.4243 42.8398 66.7984 42.8398C65.1725 42.8398 63.8497 41.517 63.8497 39.8911C63.8497 38.2652 65.1725 36.9425 66.7984 36.9425ZM66.7984 19.6201C68.4243 19.6201 69.747 20.9428 69.747 22.5687C69.747 24.1946 68.4243 25.5174 66.7984 25.5174C65.1725 25.5174 63.8497 24.1946 63.8497 22.5687C63.8497 20.9428 65.1725 19.6201 66.7984 19.6201ZM66.7984 2.29768C68.4243 2.29768 69.747 3.62042 69.747 5.24633C69.747 6.87224 68.4243 8.19498 66.7984 8.19498C65.1725 8.19498 63.8497 6.87224 63.8497 5.24633C63.8497 3.62057 65.1725 2.29768 66.7984 2.29768ZM9.80703 21.4232L12.9605 20.9491C13.4443 20.8765 13.8289 20.5054 13.919 20.0247C14.2691 18.1576 14.9919 16.4137 16.067 14.8413C16.3429 14.4376 16.3333 13.9035 16.0427 13.5101L14.1475 10.9443L15.7676 9.32432L18.3335 11.2196C18.7267 11.5101 19.2607 11.5199 19.6645 11.2439C21.237 10.1687 22.9809 9.44602 24.8479 9.09576C25.3286 9.00571 25.6995 8.62106 25.7723 8.13734L26.2464 4.98383H28.5375L29.0116 8.13734C29.0843 8.62106 29.4552 9.00571 29.9359 9.09576C31.8029 9.44586 33.547 10.1687 35.1194 11.2439C35.5231 11.52 36.0572 11.5101 36.4505 11.2196L39.0164 9.32432L40.6365 10.9443L38.7413 13.5103C38.4508 13.9035 38.4411 14.4376 38.717 14.8414C39.7922 16.4138 40.5149 18.1577 40.8652 20.025C40.9554 20.5057 41.34 20.8766 41.8236 20.9494L44.9771 21.4235V23.7146L41.8236 24.1887C41.34 24.2613 40.9554 24.6323 40.8652 25.113C40.5149 26.9803 39.7922 28.7242 38.717 30.2966C38.4411 30.7002 38.4507 31.2344 38.7413 31.6276L40.6366 34.1935L39.0165 35.8136L36.4507 33.9183C36.0575 33.6278 35.5233 33.618 35.1195 33.8941C33.5471 34.9693 31.8032 35.692 29.9359 36.0423C29.4552 36.1325 29.0843 36.5171 29.0116 37.0007L28.5375 40.1542H26.2464L25.7723 37.0007C25.6995 36.5171 25.3286 36.1325 24.8479 36.0423C22.9806 35.692 21.2367 34.9693 19.6643 33.8941C19.2607 33.6182 18.7267 33.6278 18.3333 33.9183L15.7675 35.8136L14.1474 34.1935L16.0427 31.6276C16.3331 31.2344 16.3429 30.7001 16.067 30.2966C14.9917 28.7242 14.2691 26.9803 13.919 25.1131C13.8288 24.6325 13.4443 24.2614 12.9605 24.1888L9.80703 23.7147V21.4232Z" fill="white"/>
</svg>
