<svg xmlns="http://www.w3.org/2000/svg" version="1.1" xmlns:xlink="http://www.w3.org/1999/xlink" width="512" height="512" x="0" y="0" viewBox="0 0 510.83 510.83" style="enable-background:new 0 0 512 512" xml:space="preserve" class=""><g><path d="M231.127 300.415c-7.684 115.436-44.394 202.915-88.521 202.915-49.706 0-90-110.995-90-247.915S92.9 7.5 142.606 7.5c31.629 0 59.448 44.944 75.498 112.913M224.239 150.892c5.369 31.762 8.366 67.178 8.366 104.523 0 5.035-.055 10.036-.162 14.996" style="stroke-width:15;stroke-miterlimit:10;" fill="none" stroke="#90d0fe" stroke-width="15" stroke-miterlimit="10" data-original="#000000" opacity="1" class=""></path><path d="M142.606 7.5h-45c-49.706 0-90 110.995-90 247.915s40.294 247.915 90 247.915h45" style="stroke-width:15;stroke-miterlimit:10;" fill="none" stroke="#90d0fe" stroke-width="15" stroke-miterlimit="10" data-original="#000000" opacity="1" class=""></path><path d="M179.24 150.893c5.368 31.761 8.366 67.177 8.366 104.522 0 115.375-28.611 212.342-67.355 240.002M120.252 15.415c22.022 15.723 40.771 53.839 52.851 104.999M269.724 120.415h105v30H142.606v-30h112.118M389.767 375.415H262.224v-30h195v30h-52.138M277.517 195.415h164.415v30H277.517zM97.399 270.415h45.207v30H97.399zM427.299 270.415h45.064v30h-45.064zM217.554 270.415h164.681v30H217.554zM465.822 23.909c0 20.276 16.437 36.713 36.713 36.713h8.19-8.19c-20.276 0-36.713 16.437-36.713 36.713v8.19-8.19c0-20.276-16.437-36.713-36.713-36.713h-8.19 8.19c20.276 0 36.713-16.437 36.713-36.713v-8.19 8.19zM314.336 413.701c0 20.276 16.437 36.713 36.713 36.713h8.19-8.19c-20.276 0-36.713 16.437-36.713 36.713v8.19-8.19c0-20.276-16.437-36.713-36.713-36.713h-8.19 8.19c20.276 0 36.713-16.437 36.713-36.713v-8.19 8.19zM97.399 187.915v15M127.526 187.915v15" style="stroke-width:15;stroke-miterlimit:10;" fill="none" stroke="#90d0fe" stroke-width="15" stroke-miterlimit="10" data-original="#000000" opacity="1" class=""></path></g></svg>