<svg xmlns="http://www.w3.org/2000/svg" xmlns:xlink="http://www.w3.org/1999/xlink" width="200" zoomAndPan="magnify" viewBox="0 0 150 56.249996" height="75" preserveAspectRatio="xMidYMid meet" version="1.0"><defs><g/><clipPath id="e07a8a49d0"><rect x="0" width="148" y="0" height="24"/></clipPath></defs><g transform="matrix(1, 0, 0, 1, 1, 16)"><g clip-path="url(#e07a8a49d0)"><g fill="#ffffff" fill-opacity="1"><g transform="translate(1.960274, 17.561014)"><g><path d="M 7.921875 -13.453125 L 10.171875 -13.453125 L 18.078125 0 L 16.171875 0 L 14.359375 -3.0625 L 3.546875 -3.0625 L 1.828125 0 L -0.109375 0 Z M 9.046875 -12.375 L 4.28125 -4.34375 L 13.625 -4.34375 Z M 9.046875 -12.375 "/></g></g></g><g fill="#ffffff" fill-opacity="1"><g transform="translate(20.611498, 17.561014)"><g><path d="M 1.734375 -13.453125 L 13.078125 -13.453125 C 13.648438 -13.460938 14.179688 -13.4375 14.671875 -13.375 C 15.171875 -13.3125 15.617188 -13.078125 16.015625 -12.671875 C 16.304688 -12.378906 16.53125 -12 16.6875 -11.53125 C 16.851562 -11.070312 16.9375 -10.421875 16.9375 -9.578125 C 16.9375 -9.554688 16.929688 -9.429688 16.921875 -9.203125 C 16.910156 -8.984375 16.882812 -8.71875 16.84375 -8.40625 C 16.8125 -8.09375 16.75 -7.769531 16.65625 -7.4375 C 16.570312 -7.113281 16.445312 -6.828125 16.28125 -6.578125 C 16.226562 -6.492188 16.144531 -6.390625 16.03125 -6.265625 C 15.914062 -6.140625 15.757812 -6.003906 15.5625 -5.859375 C 15.164062 -5.640625 14.769531 -5.503906 14.375 -5.453125 C 13.988281 -5.410156 13.578125 -5.378906 13.140625 -5.359375 L 3.40625 -5.359375 L 3.40625 0 L 1.734375 0 Z M 3.40625 -12.15625 L 3.40625 -6.640625 L 12.53125 -6.640625 C 12.757812 -6.640625 13.007812 -6.648438 13.28125 -6.671875 C 13.550781 -6.703125 13.816406 -6.757812 14.078125 -6.84375 C 14.335938 -6.9375 14.550781 -7.085938 14.71875 -7.296875 C 14.863281 -7.472656 14.972656 -7.695312 15.046875 -7.96875 C 15.117188 -8.238281 15.164062 -8.515625 15.1875 -8.796875 C 15.21875 -9.085938 15.234375 -9.335938 15.234375 -9.546875 C 15.234375 -9.835938 15.203125 -10.160156 15.140625 -10.515625 C 15.078125 -10.878906 14.957031 -11.195312 14.78125 -11.46875 C 14.71875 -11.570312 14.640625 -11.660156 14.546875 -11.734375 C 14.460938 -11.816406 14.359375 -11.882812 14.234375 -11.9375 C 13.898438 -12.082031 13.3125 -12.15625 12.46875 -12.15625 Z M 3.40625 -12.15625 "/></g></g></g><g fill="#ffffff" fill-opacity="1"><g transform="translate(38.862632, 17.561014)"><g><path d="M 1.734375 -13.453125 L 13.078125 -13.453125 C 13.648438 -13.460938 14.179688 -13.4375 14.671875 -13.375 C 15.171875 -13.3125 15.617188 -13.078125 16.015625 -12.671875 C 16.304688 -12.378906 16.53125 -12 16.6875 -11.53125 C 16.851562 -11.070312 16.9375 -10.421875 16.9375 -9.578125 C 16.9375 -9.554688 16.929688 -9.429688 16.921875 -9.203125 C 16.910156 -8.984375 16.882812 -8.71875 16.84375 -8.40625 C 16.8125 -8.09375 16.75 -7.769531 16.65625 -7.4375 C 16.570312 -7.113281 16.445312 -6.828125 16.28125 -6.578125 C 16.226562 -6.492188 16.144531 -6.390625 16.03125 -6.265625 C 15.914062 -6.140625 15.757812 -6.003906 15.5625 -5.859375 C 15.164062 -5.640625 14.769531 -5.503906 14.375 -5.453125 C 13.988281 -5.410156 13.578125 -5.378906 13.140625 -5.359375 L 3.40625 -5.359375 L 3.40625 0 L 1.734375 0 Z M 3.40625 -12.15625 L 3.40625 -6.640625 L 12.53125 -6.640625 C 12.757812 -6.640625 13.007812 -6.648438 13.28125 -6.671875 C 13.550781 -6.703125 13.816406 -6.757812 14.078125 -6.84375 C 14.335938 -6.9375 14.550781 -7.085938 14.71875 -7.296875 C 14.863281 -7.472656 14.972656 -7.695312 15.046875 -7.96875 C 15.117188 -8.238281 15.164062 -8.515625 15.1875 -8.796875 C 15.21875 -9.085938 15.234375 -9.335938 15.234375 -9.546875 C 15.234375 -9.835938 15.203125 -10.160156 15.140625 -10.515625 C 15.078125 -10.878906 14.957031 -11.195312 14.78125 -11.46875 C 14.71875 -11.570312 14.640625 -11.660156 14.546875 -11.734375 C 14.460938 -11.816406 14.359375 -11.882812 14.234375 -11.9375 C 13.898438 -12.082031 13.3125 -12.15625 12.46875 -12.15625 Z M 3.40625 -12.15625 "/></g></g></g><g fill="#ffffff" fill-opacity="1"><g transform="translate(57.113766, 17.561014)"><g><path d="M 1.578125 -13.453125 L 12.546875 -13.453125 C 12.710938 -13.453125 12.878906 -13.453125 13.046875 -13.453125 C 13.210938 -13.453125 13.378906 -13.4375 13.546875 -13.40625 C 14.367188 -13.351562 15.097656 -13.15625 15.734375 -12.8125 C 16.378906 -12.46875 16.894531 -11.910156 17.28125 -11.140625 C 17.507812 -10.671875 17.671875 -10.101562 17.765625 -9.4375 C 17.859375 -8.769531 17.90625 -7.882812 17.90625 -6.78125 C 17.90625 -6.59375 17.894531 -6.222656 17.875 -5.671875 C 17.851562 -5.117188 17.789062 -4.523438 17.6875 -3.890625 C 17.59375 -3.328125 17.476562 -2.878906 17.34375 -2.546875 C 17.207031 -2.222656 17.078125 -1.957031 16.953125 -1.75 C 16.859375 -1.632812 16.734375 -1.488281 16.578125 -1.3125 C 16.429688 -1.132812 16.207031 -0.953125 15.90625 -0.765625 C 15.394531 -0.441406 14.878906 -0.238281 14.359375 -0.15625 C 13.835938 -0.0703125 13.300781 -0.0195312 12.75 0 L 1.578125 0 Z M 3.234375 -12.09375 L 3.234375 -1.421875 L 11.8125 -1.421875 C 12.519531 -1.460938 13.101562 -1.515625 13.5625 -1.578125 C 14.019531 -1.640625 14.398438 -1.753906 14.703125 -1.921875 C 14.878906 -2.023438 15.082031 -2.203125 15.3125 -2.453125 C 15.550781 -2.710938 15.75 -3.078125 15.90625 -3.546875 C 15.988281 -3.835938 16.0625 -4.25 16.125 -4.78125 C 16.195312 -5.320312 16.234375 -5.96875 16.234375 -6.71875 C 16.234375 -7.21875 16.210938 -7.710938 16.171875 -8.203125 C 16.117188 -9.160156 15.984375 -9.882812 15.765625 -10.375 C 15.554688 -10.863281 15.25 -11.242188 14.84375 -11.515625 C 14.445312 -11.796875 14.046875 -11.960938 13.640625 -12.015625 C 13.234375 -12.066406 12.796875 -12.09375 12.328125 -12.09375 Z M 3.234375 -12.09375 "/></g></g></g><g fill="#ffffff" fill-opacity="1"><g transform="translate(76.965219, 17.561014)"><g><path d="M 1.59375 -13.453125 L 13.03125 -13.453125 C 13.582031 -13.460938 14.113281 -13.429688 14.625 -13.359375 C 15.144531 -13.285156 15.625 -13.066406 16.0625 -12.703125 C 16.507812 -12.304688 16.800781 -11.835938 16.9375 -11.296875 C 17.082031 -10.765625 17.15625 -10.21875 17.15625 -9.65625 C 17.15625 -9.582031 17.148438 -9.359375 17.140625 -8.984375 C 17.140625 -8.617188 17.097656 -8.269531 17.015625 -7.9375 C 16.898438 -7.457031 16.71875 -7.085938 16.46875 -6.828125 C 16.21875 -6.578125 15.960938 -6.394531 15.703125 -6.28125 C 15.441406 -6.164062 15.226562 -6.070312 15.0625 -6 C 15.34375 -5.925781 15.59375 -5.835938 15.8125 -5.734375 C 16.039062 -5.628906 16.253906 -5.453125 16.453125 -5.203125 C 16.691406 -4.898438 16.832031 -4.5625 16.875 -4.1875 C 16.925781 -3.8125 16.957031 -3.425781 16.96875 -3.03125 L 16.96875 0 L 15.3125 0 C 15.3125 -0.507812 15.3125 -1.015625 15.3125 -1.515625 C 15.320312 -2.015625 15.316406 -2.515625 15.296875 -3.015625 C 15.265625 -3.597656 15.210938 -4.019531 15.140625 -4.28125 C 15.066406 -4.550781 14.898438 -4.785156 14.640625 -4.984375 C 14.328125 -5.242188 13.992188 -5.394531 13.640625 -5.4375 C 13.285156 -5.476562 12.921875 -5.5 12.546875 -5.5 L 3.28125 -5.5 L 3.28125 0 L 1.59375 0 Z M 3.28125 -6.8125 L 12.34375 -6.8125 C 12.914062 -6.84375 13.394531 -6.890625 13.78125 -6.953125 C 14.175781 -7.015625 14.484375 -7.125 14.703125 -7.28125 C 14.921875 -7.425781 15.101562 -7.671875 15.25 -8.015625 C 15.40625 -8.367188 15.484375 -8.828125 15.484375 -9.390625 C 15.484375 -9.953125 15.441406 -10.378906 15.359375 -10.671875 C 15.273438 -10.972656 15.140625 -11.234375 14.953125 -11.453125 C 14.703125 -11.742188 14.367188 -11.929688 13.953125 -12.015625 C 13.535156 -12.109375 12.960938 -12.164062 12.234375 -12.1875 L 3.28125 -12.1875 Z M 3.28125 -6.8125 "/></g></g></g><g fill="#ffffff" fill-opacity="1"><g transform="translate(96.416595, 17.561014)"><g><path d="M 7.921875 -13.453125 L 10.171875 -13.453125 L 18.078125 0 L 16.171875 0 L 14.359375 -3.0625 L 3.546875 -3.0625 L 1.828125 0 L -0.109375 0 Z M 9.046875 -12.375 L 4.28125 -4.34375 L 13.625 -4.34375 Z M 9.046875 -12.375 "/></g></g></g><g fill="#ffffff" fill-opacity="1"><g transform="translate(115.067819, 17.561014)"><g><path d="M 1.65625 -13.453125 L 14.53125 -13.453125 L 14.53125 -12.1875 L 3.375 -12.1875 L 3.375 -7.640625 L 13.96875 -7.640625 L 13.96875 -6.28125 L 3.328125 -6.28125 L 3.328125 0 L 1.65625 0 Z M 1.65625 -13.453125 "/></g></g></g><g fill="#ffffff" fill-opacity="1"><g transform="translate(130.156439, 17.561014)"><g><path d="M 0.078125 -13.453125 L 15.328125 -13.453125 L 15.328125 -12.03125 L 8.625 -12.03125 L 8.625 0 L 6.953125 0 L 6.953125 -12 L 0.078125 -12 Z M 0.078125 -13.453125 "/></g></g></g></g></g></svg>